PathFileType	4	(x/y/z)	S06_M20_T18
DataRate	CameraRate	NumFrames	NumMarkers	Units	OrigDataRate	OrigDataStartFrame	OrigNumFrames
240	240	7	51	mm	240	181	481
Frame#	Time	Sternum			R.Acromium			L.Acromium			Top.Head			R.ASIS			L.ASIS			R.PSIS			L.PSIS			R.Great.Tro			L.Great.Tro			R.Iliac.Crest			L.Iliac.Crest			V.Sacral			R.Thigh.Upper.Post			R.Thigh.Lower.Ant			R.Thigh.Lower.Post			R.Thigh.Upper.Ant			R.Knee.Lat			R.Knee.Med			R.Shank.Upper.Post			R.Shank.Lower.Ant			R.Shank.Lower.Post			R.Shank.Upper.Ant			R.Ankle.Lat			R.Ankle.Med			R.Heel.Upper			R.Heel.Med			R.Heel.Lat			R.Toe.Lat			R.Toe.Med			R.Toe.Tip			L.Thigh.Upper.Post			L.Thigh.Lower.Ant			L.Thigh.Lower.Post			L.Thigh.Upper.Ant			L.Knee.Lat			L.Knee.Med			L.Shank.Upper.Post			L.Shank.Lower.Ant			L.Shank.Lower.Post			L.Shank.Upper.Ant			L.Ankle.Lat			L.Ankle.Med			L.Heel.Upper			L.Heel.Med			L.Heel.Lat			L.Toe.Lat			L.Toe.Med			L.Toe.Tip			Cervical.Spine			Back			
		X1	Y1	Z1	X2	Y2	Z2	X3	Y3	Z3	X4	Y4	Z4	X5	Y5	Z5	X6	Y6	Z6	X7	Y7	Z7	X8	Y8	Z8	X9	Y9	Z9	X10	Y10	Z10	X11	Y11	Z11	X12	Y12	Z12	X13	Y13	Z13	X14	Y14	Z14	X15	Y15	Z15	X16	Y16	Z16	X17	Y17	Z17	X18	Y18	Z18	X19	Y19	Z19	X20	Y20	Z20	X21	Y21	Z21	X22	Y22	Z22	X23	Y23	Z23	X24	Y24	Z24	X25	Y25	Z25	X26	Y26	Z26	X27	Y27	Z27	X28	Y28	Z28	X29	Y29	Z29	X30	Y30	Z30	X31	Y31	Z31	X32	Y32	Z32	X33	Y33	Z33	X34	Y34	Z34	X35	Y35	Z35	X36	Y36	Z36	X37	Y37	Z37	X38	Y38	Z38	X39	Y39	Z39	X40	Y40	Z40	X41	Y41	Z41	X42	Y42	Z42	X43	Y43	Z43	X44	Y44	Z44	X45	Y45	Z45	X46	Y46	Z46	X47	Y47	Z47	X48	Y48	Z48	X49	Y49	Z49	X50	Y50	Z50	X51	Y51	Z51	

181	0.75	-591.2	1272.1	305.29	-725.76	1470.4	482.42	-740.03	1478.5	131.35	-667.8	1789.6	307.02	-617.36	1041.1	424.34	-625.09	1026.2	170.47	NaN	NaN	NaN	-824.4	1054.3	262.67	-663.93	967.43	479.66	-740.5	958.34	125.72	-706.04	1106.9	463.06	-698.39	1098.7	138.15	-836.72	1018.2	307.53	-602.87	722.87	457.13	-535.02	660.76	411.74	-596.82	636.7	432.42	-539.35	749.59	432.42	-544.85	538.97	416.09	-558.56	545	286.4	-548.31	305.19	404.98	-478.19	253.97	378.08	-539.12	229.3	386.8	-489.13	328.97	395.16	-484.33	106.78	353.69	-469.92	122.43	269.73	-535.12	64.525	297.67	-520.02	36.426	266.8	-523.84	32.47	331.27	-350.33	58.489	376.43	-329.59	87.471	264.16	-271.16	118.73	312.69	-752.86	702.77	135.63	-712.83	607.71	174.69	-786.96	620.13	151.06	-682.41	695.92	153.91	-836.96	535.92	170.37	-779.5	517.07	277.85	-1021.2	399.56	203.47	-1017.7	311.15	196.23	-1073	351.45	225.56	-970.61	361.86	180.46	-1134.6	213.29	224.52	-1101.1	221	310.05	-1192.3	259.52	272.43	-1209.7	248.11	309.69	-1215.1	239.55	248.45	-1149.1	74.115	223.96	-1122.3	78.914	339.12	-1079.5	32.776	291.36	-785.81	1525.9	308.48	-832.84	1249.3	303.79
182	0.75417	-585.12	1272.7	305.29	-719.35	1470.9	482.54	-734.01	1479.1	131.48	-661.87	1790.1	307.29	-611.46	1042	424.68	-618.82	1026.7	170.82	NaN	NaN	NaN	-818.23	1054.7	262.59	-658.23	968.38	479.97	-733.67	958.18	126.08	-700.11	1107.7	463.15	-692.01	1099	138.21	-830.59	1018.7	307.54	-597.22	723.61	457.62	-529.43	661.39	412.25	-591.23	637.4	433.02	-533.66	750.25	432.95	-539.66	539.37	416.56	-552.97	545.68	286.91	-544.95	305.53	405.41	-475.27	253.8	378.42	-536.41	229.61	387.25	-485.56	328.86	395.51	-482.92	106.69	353.94	-468.36	122.23	269.99	-534.34	65.132	297.9	-519.58	36.964	266.9	-523.43	32.864	331.4	-349.53	56.592	376.42	-328.41	85.385	264.1	-269.5	115.76	312.6	-743.27	701.97	135.11	-702.26	607.31	174.21	-776.43	618.93	150.29	-672.68	695.97	153.74	-825.74	534.62	169.23	-768.37	515.77	276.86	-1011	400.56	202.17	-1008.7	312.06	195.11	-1063.5	353.1	224.3	-960.95	362.19	179.4	-1126.9	215.9	223.4	-1093.4	223.17	309.01	-1182.6	264.23	271.1	-1200.4	253.56	308.46	-1206.2	244.82	247.3	-1145.5	76.892	223.52	-1118	81.366	338.34	-1077.5	32.066	290.76	-779.7	1526.4	308.69	-826.7	1249.9	303.96
183	0.75833	-579.09	1273.3	305.29	-712.99	1471.5	482.64	-728	1479.7	131.59	-655.95	1790.6	307.56	-605.63	1042.9	425.07	-612.58	1027.1	171.19	NaN	NaN	NaN	-812.12	1055.1	262.5	-652.59	969.31	480.29	-726.84	958.03	126.44	-694.26	1108.6	463.25	-685.69	1099.3	138.29	-824.53	1019.2	307.52	-591.68	724.32	458.13	-523.94	661.98	412.81	-585.76	638.07	433.62	-528.04	750.86	433.55	-534.56	539.76	417.02	-547.4	546.36	287.44	-541.65	305.88	405.83	-472.43	253.63	378.75	-533.77	229.94	387.69	-482.07	328.74	395.86	-481.57	106.6	354.18	-466.87	122.05	270.24	-533.6	65.71	298.12	-519.16	37.493	267	-523.05	33.245	331.53	-348.78	54.789	376.43	-327.3	83.37	264.04	-267.94	112.86	312.51	-733.59	701.2	134.62	-691.64	606.97	173.85	-765.8	617.78	149.56	-662.89	696.07	153.67	-814.43	533.34	168.12	-757.25	514.58	276	-1000.7	401.52	200.84	-999.5	312.93	194	-1053.8	354.69	222.98	-951.07	362.49	178.36	-1118.9	218.46	222.25	-1085.5	225.3	307.96	-1172.7	268.77	269.75	-1190.8	258.83	307.2	-1197	249.93	246.11	-1141.5	79.7	223.03	-1113.4	83.808	337.53	-1075.1	31.395	290.13	-773.62	1526.9	308.87	-820.63	1250.4	304.1
184	0.7625	-573.13	1273.8	305.3	-706.67	1472	482.71	-722.02	1480.3	131.69	-650.05	1791.2	307.81	-599.85	1043.9	425.49	-606.38	1027.6	171.59	NaN	NaN	NaN	-806.05	1055.5	262.4	-647.03	970.21	480.62	-720	957.92	126.79	-688.49	1109.4	463.34	-679.43	1099.6	138.38	-818.53	1019.7	307.49	-586.25	724.98	458.64	-518.53	662.53	413.4	-580.4	638.7	434.2	-522.51	751.41	434.2	-529.56	540.12	417.46	-541.87	547.03	287.95	-538.43	306.22	406.24	-469.65	253.46	379.07	-531.2	230.26	388.11	-478.66	328.62	396.2	-480.28	106.54	354.41	-465.43	121.88	270.49	-532.9	66.261	298.34	-518.75	38.007	267.1	-522.67	33.613	331.66	-348.1	53.085	376.46	-326.27	81.419	263.96	-266.48	110.05	312.39	-723.85	700.47	134.15	-680.97	606.7	173.59	-755.11	616.67	148.86	-653.05	696.24	153.7	-803.02	532.1	167.05	-746.16	513.51	275.25	-990.26	402.43	199.48	-990.07	313.76	192.9	-1043.9	356.22	221.62	-941	362.76	177.35	-1110.6	220.95	221.08	-1077.3	227.37	306.91	-1162.7	273.13	268.38	-1181	263.88	305.89	-1187.6	254.83	244.87	-1137.1	82.508	222.48	-1108.4	86.216	336.67	-1072.3	30.782	289.47	-767.58	1527.5	309.04	-814.62	1251.1	304.22
185	0.76667	-567.21	1274.4	305.31	-700.4	1472.6	482.76	-716.06	1481	131.76	-644.15	1791.7	308.05	-594.12	1044.8	425.96	-600.2	1028.1	172.02	NaN	NaN	NaN	-800.04	1055.8	262.3	-641.51	971.07	480.96	-713.15	957.83	127.14	-682.79	1110.2	463.44	-673.22	1099.9	138.49	-812.58	1020.2	307.45	-580.94	725.6	459.15	-513.22	663.02	414.03	-575.15	639.29	434.77	-517.07	751.91	434.89	-524.66	540.44	417.88	-536.41	547.69	288.46	-535.27	306.56	406.63	-466.95	253.29	379.38	-528.69	230.58	388.5	-475.32	328.48	396.51	-479.04	106.49	354.63	-464.04	121.73	270.73	-532.24	66.785	298.54	-518.36	38.503	267.2	-522.31	33.971	331.78	-347.46	51.485	376.5	-325.3	79.527	263.85	-265.12	107.32	312.25	-714.05	699.79	133.7	-670.28	606.52	173.45	-744.36	615.63	148.21	-643.18	696.48	153.83	-791.55	530.92	166.04	-735.1	512.56	274.62	-979.64	403.28	198.1	-980.44	314.57	191.83	-1033.9	357.68	220.22	-930.74	363.01	176.36	-1102.1	223.35	219.88	-1068.9	229.39	305.86	-1152.5	277.26	266.98	-1171	268.66	304.54	-1177.9	259.49	243.58	-1132.1	85.282	221.87	-1103	88.566	335.78	-1069.1	30.247	288.77	-761.57	1528	309.17	-808.67	1251.7	304.33
186	0.77083	-561.35	1274.9	305.33	-694.18	1473.2	482.79	-710.13	1481.6	131.81	-638.25	1792.2	308.29	-588.44	1045.7	426.45	-594.04	1028.6	172.47	NaN	NaN	NaN	-794.08	1056.2	262.2	-636.04	971.88	481.3	-706.29	957.78	127.48	-677.16	1111	463.55	-667.08	1100.3	138.61	-806.68	1020.7	307.4	-575.73	726.16	459.67	-508.01	663.45	414.68	-570.03	639.83	435.31	-511.69	752.34	435.62	-519.87	540.73	418.27	-531.04	548.31	288.94	-532.19	306.89	406.98	-464.32	253.11	379.67	-526.26	230.9	388.85	-472.07	328.33	396.81	-477.85	106.45	354.82	-462.71	121.58	270.94	-531.61	67.282	298.73	-517.99	38.977	267.28	-521.97	34.32	331.89	-346.87	49.991	376.56	-324.39	77.689	263.72	-263.84	104.66	312.07	-704.2	699.17	133.29	-659.57	606.41	173.41	-733.56	614.66	147.6	-633.31	696.78	154.05	-780.02	529.79	165.08	-724.09	511.73	274.12	-968.88	404.08	196.69	-970.63	315.33	190.77	-1023.6	359.06	218.78	-920.32	363.23	175.39	-1093.4	225.64	218.65	-1060.4	231.34	304.8	-1142.1	281.14	265.56	-1160.9	273.14	303.16	-1168.1	263.88	242.25	-1126.7	87.991	221.18	-1097.3	90.838	334.85	-1065.4	29.808	288.04	-755.6	1528.6	309.28	-802.78	1252.3	304.42
187	0.775	-555.53	1275.5	305.35	-688.02	1473.9	482.79	-704.22	1482.3	131.84	-632.36	1792.8	308.51	-582.79	1046.6	426.97	-587.92	1029.1	172.93	NaN	NaN	NaN	-788.16	1056.6	262.1	-630.61	972.65	481.66	-699.43	957.76	127.82	-671.58	1111.8	463.67	-660.98	1100.6	138.75	-800.82	1021.1	307.36	-570.62	726.68	460.18	-502.89	663.82	415.34	-565.02	640.33	435.83	-506.4	752.71	436.37	-515.19	540.99	418.62	-525.78	548.88	289.4	-529.2	307.21	407.3	-461.77	252.94	379.94	-523.9	231.21	389.16	-468.9	328.17	397.07	-476.7	106.42	354.98	-461.44	121.44	271.12	-531.02	67.755	298.9	-517.63	39.426	267.37	-521.63	34.66	331.99	-346.32	48.606	376.62	-323.55	75.9	263.56	-262.65	102.09	311.84	-694.31	698.63	132.92	-648.87	606.4	173.47	-722.74	613.78	147.04	-623.44	697.13	154.37	-768.46	528.73	164.19	-713.14	511.03	273.73	-958	404.82	195.28	-960.66	316.06	189.74	-1013.3	360.38	217.32	-909.74	363.44	174.45	-1084.4	227.83	217.4	-1051.6	233.21	303.74	-1131.7	284.75	264.13	-1150.8	277.29	301.73	-1158.2	267.95	240.87	-1120.8	90.603	220.41	-1091.1	93.013	333.87	-1061.1	29.483	287.25	-749.66	1529.2	309.37	-796.93	1253	304.5
